<svg width="139" height="78" viewBox="0 0 139 78" fill="none" xmlns="http://www.w3.org/2000/svg">
<path d="M0.859375 3.75V0.375H51.4844V3.75H0.859375ZM0.859375 10.5V7.125H51.4844V10.5H0.859375ZM0.859375 17.25V13.875H51.4844V17.25H37.9844V78H34.6094V17.25H31.2344V78H27.8594V17.25H24.4844V78H21.1094V17.25H17.7344V78H14.3594V17.25H0.859375ZM115.047 49.6875L118.422 43.3125V78H115.047V49.6875ZM121.797 36.75L125.172 30.375V78H121.797V36.75ZM128.547 24L131.922 17.5781V78H128.547V24ZM105.906 48.0938L103.984 44.5781L127.234 0.375H131.031L105.906 48.0938ZM102.016 40.7344L100.047 37.1719L119.547 0.375H123.391L102.016 40.7344ZM79.4219 43.6875L82.7969 50.0625V78H79.4219V43.6875ZM72.6719 30.8438L76.0469 37.2188V78H72.6719V30.8438ZM65.9219 18L69.2969 24.4219V78H65.9219V18ZM93.2031 57.75H89.4062L62.5469 6.79688V78H59.1719V0.375H62.9688L93.2031 57.75ZM100.844 57.75H97L66.8125 0.375H70.6562L100.844 57.75ZM135.297 6.79688L108.438 57.75H104.594L74.4531 0.375H78.25L106.562 54.1875L134.828 0.375H138.672V78H135.297V6.79688Z" fill="#A3E635"/>
</svg>
